<?xml version="1.0" encoding="UTF-8"?>
<svg id="Layer_1" xmlns="http://www.w3.org/2000/svg" xmlns:xlink="http://www.w3.org/1999/xlink" version="1.1" viewBox="0 0 800 800">
  <!-- Generator: Adobe Illustrator 29.2.1, SVG Export Plug-In . SVG Version: 2.1.0 Build 116)  -->
  <defs>
    <style>
      .st0 {
        fill: #fff;
      }

      .st1 {
        fill: #e8e8e8;
      }
    </style>
  </defs>
  <rect x="293" y="80" width="424" height="640" rx="35.5" ry="35.5"/>
  <path d="M560,53.2v693.5c0,30.9,19.5,53.3,46.3,53.3s12.5-1.2,18.7-3.6l126.7-50.7c35.2-13,48.4-30.9,48.4-65.7V119.9c0-34.8-13.2-52.7-48.7-65.8L625.2,3.6c-35-13.2-65.2,11.7-65.2,49.6Z"/>
  <path class="st1" d="M586.7,53.2c0-15.9,7.9-26.6,19.6-26.6s6.1.6,9.3,1.9l126.1,50.5c25.5,9.4,31.6,17.5,31.6,40.9v560.1c0,23.5-6.1,31.5-31.3,40.8l-126.7,50.7c-3,1.1-6.1,1.7-9.1,1.7-11.7,0-19.6-10.7-19.6-26.6V53.2h.1Z"/>
  <path d="M613.3,359.9v80c0,7.4,6,13.3,13.3,13.3s13.3-6,13.3-13.3v-80c0-7.4-6-13.3-13.3-13.3s-13.3,6-13.3,13.3Z"/>
  <path class="st0" d="M1,405c.7,1.6,1.7,3.1,2.9,4.3l133.3,133.3c2.6,2.6,6,3.9,9.4,3.9s6.8-1.3,9.4-3.9c5.2-5.2,5.2-13.6,0-18.9l-110.6-110.6h447.8c7.4,0,13.3-6,13.3-13.3s-6-13.3-13.3-13.3H45.5l110.6-110.6c5.2-5.2,5.2-13.6,0-18.9-5.2-5.2-13.6-5.2-18.9,0L3.9,390.4c-1.2,1.2-2.2,2.7-2.9,4.3-1.3,3.3-1.3,6.9,0,10.2h0Z"/>
  <path class="st0" d="M1,397c.7,1.6,1.7,3.1,2.9,4.3l133.3,133.3c2.6,2.6,6,3.9,9.4,3.9s6.8-1.3,9.4-3.9c5.2-5.2,5.2-13.6,0-18.9l-110.6-110.6h447.8c7.4,0,13.3-6,13.3-13.3s-6-13.3-13.3-13.3H45.5l110.6-110.6c5.2-5.2,5.2-13.6,0-18.9-5.2-5.2-13.6-5.2-18.9,0L3.9,382.4c-1.2,1.2-2.2,2.7-2.9,4.3-1.3,3.3-1.3,6.9,0,10.2h0Z"/>
  <path class="st0" d="M1,413.2c.7,1.6,1.7,3.1,2.9,4.3l133.3,133.3c2.6,2.6,6,3.9,9.4,3.9s6.8-1.3,9.4-3.9c5.2-5.2,5.2-13.6,0-18.9l-110.6-110.6h447.8c7.4,0,13.3-6,13.3-13.3s-6-13.3-13.3-13.3H45.5l110.6-110.6c5.2-5.2,5.2-13.6,0-18.9-5.2-5.2-13.6-5.2-18.9,0L3.9,398.6c-1.2,1.2-2.2,2.7-2.9,4.3-1.3,3.3-1.3,6.9,0,10.2h0Z"/>
</svg>